<svg width="27" height="35" viewBox="0 0 27 35" fill="none" xmlns="http://www.w3.org/2000/svg">
<path d="M0 25.7895C0 27.4105 0.658125 28.8658 1.6875 29.8789V33.1579C1.6875 34.1711 2.44688 35 3.375 35H5.0625C5.99062 35 6.75 34.1711 6.75 33.1579V31.3158H20.25V33.1579C20.25 34.1711 21.0094 35 21.9375 35H23.625C24.5531 35 25.3125 34.1711 25.3125 33.1579V29.8789C26.3419 28.8658 27 27.4105 27 25.7895V7.36842C27 0.921053 20.9587 0 13.5 0C6.04125 0 0 0.921053 0 7.36842V25.7895ZM5.90625 27.6316C4.50563 27.6316 3.375 26.3974 3.375 24.8684C3.375 23.3395 4.50563 22.1053 5.90625 22.1053C7.30687 22.1053 8.4375 23.3395 8.4375 24.8684C8.4375 26.3974 7.30687 27.6316 5.90625 27.6316ZM21.0938 27.6316C19.6931 27.6316 18.5625 26.3974 18.5625 24.8684C18.5625 23.3395 19.6931 22.1053 21.0938 22.1053C22.4944 22.1053 23.625 23.3395 23.625 24.8684C23.625 26.3974 22.4944 27.6316 21.0938 27.6316ZM23.625 16.5789H3.375V7.36842H23.625V16.5789Z" fill="#5177FF"/>
</svg>
