<svg width="1024" height="1024" viewBox="0 0 1024 1024" fill="none" xmlns="http://www.w3.org/2000/svg">
<g clip-path="url(#clip0_11933_49)">
<path d="M512 1024C794.77 1024 1024 794.77 1024 512C1024 229.23 794.77 0 512 0C229.23 0 0 229.23 0 512C0 794.77 229.23 1024 512 1024Z" fill="white" stroke="white"/>
<path d="M512 981.952C771.548 981.952 981.952 771.547 981.952 512C981.952 252.453 771.548 42.0485 512 42.0485C252.453 42.0485 42.0486 252.453 42.0486 512C42.0486 771.547 252.453 981.952 512 981.952Z" fill="#CE7975" stroke="#CE7975"/>
<path d="M512 920.116C286.521 920.116 103.884 737.479 103.884 512C103.884 286.522 286.521 103.884 512 103.884C737.478 103.884 920.116 286.522 920.116 512C920.116 737.479 737.478 920.116 512 920.116Z" fill="white"/>
<path d="M460.058 524.367L512 297.361L563.942 524.367H460.058Z" fill="#426373" stroke="#426373"/>
<path d="M512 917.963C286.521 917.963 103.884 735.325 103.884 509.847C103.884 284.368 286.521 522.214 512 522.214C737.478 522.214 920.116 284.368 920.116 509.847C920.116 735.325 737.478 917.963 512 917.963Z" fill="#426373" stroke="#426373"/>
<path d="M561.469 519.416L512 720.955L462.531 519.416H561.469Z" fill="#CE7975" stroke="#CE7975"/>
<path d="M437.363 153.578H473.301L554.258 252.895V176.527C554.258 168.389 553.346 163.311 551.523 161.293C549.115 158.559 545.306 157.191 540.098 157.191H535.508V153.578H581.602V157.191H576.914C571.315 157.191 567.344 158.884 565 162.27C563.568 164.353 562.852 169.105 562.852 176.527V288.148H559.336L472.031 181.508V263.051C472.031 271.189 472.91 276.267 474.668 278.285C477.142 281.02 480.951 282.387 486.094 282.387H490.781V286H444.688V282.387H449.277C454.941 282.387 458.945 280.694 461.289 277.309C462.721 275.225 463.438 270.473 463.438 263.051V170.961C459.596 166.469 456.667 163.507 454.648 162.074C452.695 160.642 449.798 159.307 445.957 158.07C444.069 157.484 441.204 157.191 437.363 157.191V153.578Z" fill="#426373"/>
<path d="M437.363 153.578V153.078H436.863V153.578H437.363ZM473.301 153.578L473.688 153.262L473.538 153.078H473.301V153.578ZM554.258 252.895L553.87 253.21L554.758 254.299V252.895H554.258ZM551.523 161.293L551.148 161.624L551.152 161.628L551.523 161.293ZM535.508 157.191H535.008V157.691H535.508V157.191ZM535.508 153.578V153.078H535.008V153.578H535.508ZM581.602 153.578H582.102V153.078H581.602V153.578ZM581.602 157.191V157.691H582.102V157.191H581.602ZM565 162.27L564.589 161.985L564.588 161.986L565 162.27ZM562.852 288.148V288.648H563.352V288.148H562.852ZM559.336 288.148L558.949 288.465L559.099 288.648H559.336V288.148ZM472.031 181.508L472.418 181.191L471.531 180.108V181.508H472.031ZM474.668 278.285L474.291 278.614L474.297 278.621L474.668 278.285ZM490.781 282.387H491.281V281.887H490.781V282.387ZM490.781 286V286.5H491.281V286H490.781ZM444.688 286H444.188V286.5H444.688V286ZM444.688 282.387V281.887H444.188V282.387H444.688ZM461.289 277.309L461.7 277.593L461.701 277.592L461.289 277.309ZM463.438 170.961H463.938V170.776L463.818 170.636L463.438 170.961ZM454.648 162.074L454.353 162.477L454.359 162.482L454.648 162.074ZM445.957 158.07L446.11 157.594L446.105 157.593L445.957 158.07ZM437.363 157.191H436.863V157.691H437.363V157.191ZM437.363 154.078H473.301V153.078H437.363V154.078ZM472.913 153.894L553.87 253.21L554.645 252.579L473.688 153.262L472.913 153.894ZM554.758 252.895V176.527H553.758V252.895H554.758ZM554.758 176.527C554.758 172.444 554.529 169.107 554.066 166.527C553.607 163.965 552.903 162.075 551.894 160.958L551.152 161.628C551.967 162.53 552.63 164.187 553.082 166.704C553.53 169.202 553.758 172.473 553.758 176.527H554.758ZM551.899 160.962C549.36 158.081 545.386 156.691 540.098 156.691V157.691C545.226 157.691 548.869 159.037 551.148 161.623L551.899 160.962ZM540.098 156.691H535.508V157.691H540.098V156.691ZM536.008 157.191V153.578H535.008V157.191H536.008ZM535.508 154.078H581.602V153.078H535.508V154.078ZM581.102 153.578V157.191H582.102V153.578H581.102ZM581.602 156.691H576.914V157.691H581.602V156.691ZM576.914 156.691C571.216 156.691 567.058 158.419 564.589 161.985L565.411 162.554C567.63 159.349 571.415 157.691 576.914 157.691V156.691ZM564.588 161.986C563.806 163.124 563.255 164.927 562.894 167.322C562.531 169.732 562.352 172.803 562.352 176.527H563.352C563.352 172.829 563.53 169.813 563.883 167.471C564.238 165.114 564.762 163.498 565.412 162.553L564.588 161.986ZM562.352 176.527V288.148H563.352V176.527H562.352ZM562.852 287.648H559.336V288.648H562.852V287.648ZM559.723 287.832L472.418 181.191L471.644 181.825L558.949 288.465L559.723 287.832ZM471.531 181.508V263.051H472.531V181.508H471.531ZM471.531 263.051C471.531 267.134 471.751 270.47 472.198 273.048C472.641 275.608 473.318 277.497 474.291 278.614L475.045 277.957C474.26 277.055 473.619 275.396 473.183 272.878C472.75 270.378 472.531 267.106 472.531 263.051H471.531ZM474.297 278.621C476.899 281.496 480.867 282.887 486.094 282.887V281.887C481.034 281.887 477.385 280.543 475.039 277.95L474.297 278.621ZM486.094 282.887H490.781V281.887H486.094V282.887ZM490.281 282.387V286H491.281V282.387H490.281ZM490.781 285.5H444.688V286.5H490.781V285.5ZM445.188 286V282.387H444.188V286H445.188ZM444.688 282.887H449.277V281.887H444.688V282.887ZM449.277 282.887C455.038 282.887 459.23 281.161 461.7 277.593L460.878 277.024C458.66 280.227 454.844 281.887 449.277 281.887V282.887ZM461.701 277.592C462.484 276.454 463.034 274.652 463.395 272.256C463.758 269.846 463.938 266.775 463.938 263.051H462.938C462.938 266.749 462.759 269.765 462.406 272.107C462.051 274.464 461.527 276.08 460.877 277.025L461.701 277.592ZM463.938 263.051V170.961H462.938V263.051H463.938ZM463.818 170.636C459.976 166.144 457.012 163.138 454.938 161.666L454.359 162.482C456.322 163.875 459.216 166.794 463.057 171.286L463.818 170.636ZM454.944 161.671C452.928 160.193 449.973 158.838 446.11 157.594L445.804 158.546C449.623 159.776 452.462 161.091 454.353 162.477L454.944 161.671ZM446.105 157.593C444.143 156.984 441.217 156.691 437.363 156.691V157.691C441.192 157.691 443.995 157.985 445.809 158.548L446.105 157.593ZM437.863 157.191V153.578H436.863V157.191H437.863Z" fill="#426373"/>
<path d="M546.699 738.551V784.352H543.086C541.914 775.562 539.798 768.564 536.738 763.355C533.743 758.147 529.447 754.013 523.848 750.953C518.249 747.893 512.454 746.363 506.465 746.363C499.694 746.363 494.095 748.447 489.668 752.613C485.241 756.715 483.027 761.402 483.027 766.676C483.027 770.712 484.427 774.391 487.227 777.711C491.263 782.594 500.866 789.104 516.035 797.242C528.405 803.883 536.836 808.993 541.328 812.574C545.885 816.09 549.368 820.257 551.777 825.074C554.251 829.892 555.488 834.938 555.488 840.211C555.488 850.237 551.582 858.896 543.77 866.188C536.022 873.414 526.029 877.027 513.789 877.027C509.948 877.027 506.335 876.734 502.949 876.148C500.931 875.823 496.732 874.651 490.352 872.633C484.036 870.549 480.033 869.508 478.34 869.508C476.712 869.508 475.41 869.996 474.434 870.973C473.522 871.949 472.839 873.967 472.383 877.027H468.77V831.617H472.383C474.076 841.122 476.354 848.251 479.219 853.004C482.083 857.691 486.445 861.598 492.305 864.723C498.229 867.848 504.707 869.41 511.738 869.41C519.876 869.41 526.289 867.262 530.977 862.965C535.729 858.668 538.105 853.59 538.105 847.73C538.105 844.475 537.194 841.188 535.371 837.867C533.613 834.547 530.846 831.454 527.07 828.59C524.531 826.637 517.598 822.503 506.27 816.188C494.941 809.807 486.868 804.729 482.051 800.953C477.298 797.177 473.685 793.01 471.211 788.453C468.737 783.896 467.5 778.883 467.5 773.414C467.5 763.909 471.146 755.738 478.438 748.902C485.729 742.001 495.007 738.551 506.27 738.551C513.301 738.551 520.755 740.276 528.633 743.727C532.279 745.354 534.85 746.168 536.348 746.168C538.04 746.168 539.408 745.68 540.449 744.703C541.556 743.661 542.435 741.611 543.086 738.551H546.699Z" fill="#CE7975"/>
<path d="M546.699 738.551H547.199V738.051H546.699V738.551ZM546.699 784.352V784.852H547.199V784.352H546.699ZM543.086 784.352L542.59 784.418L542.648 784.852H543.086V784.352ZM536.738 763.355L536.305 763.605L536.307 763.609L536.738 763.355ZM523.848 750.953L523.608 751.392L523.848 750.953ZM489.668 752.613L490.008 752.98L490.011 752.977L489.668 752.613ZM487.227 777.711L487.612 777.392L487.609 777.389L487.227 777.711ZM516.035 797.242L516.272 796.802L516.272 796.802L516.035 797.242ZM541.328 812.574L541.016 812.965L541.023 812.97L541.328 812.574ZM551.777 825.074L551.33 825.298L551.333 825.303L551.777 825.074ZM543.77 866.188L544.111 866.553L544.111 866.553L543.77 866.188ZM502.949 876.148L503.034 875.656L503.029 875.655L502.949 876.148ZM490.352 872.633L490.195 873.108L490.201 873.11L490.352 872.633ZM474.434 870.973L474.08 870.619L474.074 870.625L474.068 870.631L474.434 870.973ZM472.383 877.027V877.527H472.814L472.877 877.101L472.383 877.027ZM468.77 877.027H468.27V877.527H468.77V877.027ZM468.77 831.617V831.117H468.27V831.617H468.77ZM472.383 831.617L472.875 831.53L472.802 831.117H472.383V831.617ZM479.219 853.004L478.791 853.262L478.792 853.265L479.219 853.004ZM492.305 864.723L492.069 865.164L492.071 865.165L492.305 864.723ZM530.977 862.965L530.641 862.594L530.639 862.596L530.977 862.965ZM535.371 837.867L534.929 838.101L534.933 838.108L535.371 837.867ZM527.07 828.59L526.765 828.986L526.768 828.988L527.07 828.59ZM506.27 816.188L506.024 816.623L506.026 816.624L506.27 816.188ZM482.051 800.953L481.74 801.345L481.742 801.347L482.051 800.953ZM471.211 788.453L470.772 788.692L471.211 788.453ZM478.438 748.902L478.779 749.267L478.781 749.265L478.438 748.902ZM528.633 743.727L528.837 743.27L528.833 743.269L528.633 743.727ZM540.449 744.703L540.791 745.068L540.792 745.067L540.449 744.703ZM543.086 738.551V738.051H542.681L542.597 738.447L543.086 738.551ZM546.199 738.551V784.352H547.199V738.551H546.199ZM546.699 783.852H543.086V784.852H546.699V783.852ZM543.582 784.285C542.405 775.459 540.275 768.388 537.169 763.102L536.307 763.609C539.321 768.739 541.423 775.666 542.59 784.418L543.582 784.285ZM537.172 763.106C534.128 757.813 529.762 753.616 524.087 750.514L523.608 751.392C529.131 754.41 533.359 758.481 536.305 763.605L537.172 763.106ZM524.087 750.514C518.42 747.417 512.544 745.863 506.465 745.863V746.863C512.365 746.863 518.077 748.369 523.608 751.392L524.087 750.514ZM506.465 745.863C499.582 745.863 493.856 747.985 489.325 752.249L490.011 752.977C494.334 748.908 499.806 746.863 506.465 746.863V745.863ZM489.328 752.247C484.815 756.428 482.527 761.242 482.527 766.676H483.527C483.527 761.562 485.667 757.002 490.008 752.98L489.328 752.247ZM482.527 766.676C482.527 770.84 483.975 774.63 486.844 778.033L487.609 777.389C484.879 774.151 483.527 770.585 483.527 766.676H482.527ZM486.841 778.03C488.905 780.526 492.362 783.406 497.175 786.67C501.996 789.938 508.205 793.609 515.799 797.683L516.272 796.802C508.696 792.737 502.519 789.084 497.737 785.842C492.948 782.595 489.585 779.779 487.612 777.392L486.841 778.03ZM515.799 797.683C528.169 804.324 536.563 809.416 541.016 812.965L541.64 812.183C537.108 808.571 528.641 803.442 516.272 796.802L515.799 797.683ZM541.023 812.97C545.525 816.443 548.957 820.552 551.33 825.298L552.225 824.851C549.78 819.961 546.246 815.737 541.634 812.178L541.023 812.97ZM551.333 825.303C553.771 830.052 554.988 835.019 554.988 840.211H555.988C555.988 834.856 554.731 829.732 552.222 824.846L551.333 825.303ZM554.988 840.211C554.988 850.088 551.147 858.618 543.428 865.822L544.111 866.553C552.017 859.174 555.988 850.385 555.988 840.211H554.988ZM543.428 865.822C535.788 872.949 525.923 876.527 513.789 876.527V877.527C526.134 877.527 536.256 873.879 544.111 866.553L543.428 865.822ZM513.789 876.527C509.973 876.527 506.389 876.236 503.034 875.656L502.864 876.641C506.281 877.232 509.923 877.527 513.789 877.527V876.527ZM503.029 875.655C501.054 875.336 496.891 874.177 490.502 872.156L490.201 873.11C496.573 875.125 500.808 876.31 502.87 876.642L503.029 875.655ZM490.508 872.158C487.346 871.115 484.755 870.33 482.738 869.805C480.737 869.285 479.257 869.008 478.34 869.008V870.008C479.115 870.008 480.483 870.252 482.486 870.773C484.474 871.29 487.042 872.068 490.195 873.108L490.508 872.158ZM478.34 869.008C476.605 869.008 475.167 869.532 474.08 870.619L474.787 871.326C475.653 870.46 476.819 870.008 478.34 870.008V869.008ZM474.068 870.631C473.544 871.193 473.116 872.018 472.764 873.058C472.409 874.105 472.119 875.406 471.888 876.954L472.877 877.101C473.103 875.589 473.382 874.351 473.711 873.379C474.042 872.402 474.412 871.728 474.799 871.314L474.068 870.631ZM472.383 876.527H468.77V877.527H472.383V876.527ZM469.27 877.027V831.617H468.27V877.027H469.27ZM468.77 832.117H472.383V831.117H468.77V832.117ZM471.891 831.705C473.587 841.232 475.879 848.432 478.791 853.262L479.647 852.746C476.829 848.071 474.564 841.012 472.875 831.53L471.891 831.705ZM478.792 853.265C481.712 858.043 486.148 862.006 492.069 865.164L492.54 864.281C486.743 861.19 482.455 857.34 479.645 852.743L478.792 853.265ZM492.071 865.165C498.071 868.33 504.63 869.91 511.738 869.91V868.91C504.784 868.91 498.387 867.366 492.538 864.28L492.071 865.165ZM511.738 869.91C519.965 869.91 526.511 867.736 531.314 863.333L530.639 862.596C526.067 866.787 519.787 868.91 511.738 868.91V869.91ZM531.312 863.336C536.158 858.954 538.605 853.745 538.605 847.73H537.605C537.605 853.434 535.3 858.382 530.641 862.594L531.312 863.336ZM538.605 847.73C538.605 844.378 537.666 841.008 535.809 837.627L534.933 838.108C536.722 841.367 537.605 844.572 537.605 847.73H538.605ZM535.813 837.633C534.013 834.234 531.192 831.089 527.373 828.191L526.768 828.988C530.501 831.82 533.213 834.86 534.929 838.101L535.813 837.633ZM527.375 828.194C524.8 826.213 517.829 822.059 506.513 815.751L506.026 816.624C517.367 822.946 524.262 827.061 526.765 828.986L527.375 828.194ZM506.515 815.752C495.19 809.373 487.145 804.311 482.359 800.56L481.742 801.347C486.592 805.148 494.693 810.241 506.024 816.623L506.515 815.752ZM482.362 800.562C477.653 796.82 474.087 792.704 471.65 788.215L470.772 788.692C473.283 793.317 476.943 797.534 481.74 801.345L482.362 800.562ZM471.65 788.215C469.218 783.735 468 778.804 468 773.414H467C467 778.961 468.256 784.057 470.772 788.692L471.65 788.215ZM468 773.414C468 764.055 471.583 756.014 478.779 749.267L478.096 748.538C470.709 755.463 467 763.763 467 773.414H468ZM478.781 749.265C485.968 742.463 495.117 739.051 506.27 739.051V738.051C494.896 738.051 485.49 741.539 478.094 748.539L478.781 749.265ZM506.27 739.051C513.218 739.051 520.604 740.756 528.432 744.185L528.833 743.269C520.906 739.796 513.383 738.051 506.27 738.051V739.051ZM528.429 744.183C530.262 745.001 531.835 745.62 533.145 746.034C534.447 746.446 535.522 746.668 536.348 746.668V745.668C535.676 745.668 534.716 745.483 533.447 745.081C532.185 744.682 530.65 744.079 528.837 743.27L528.429 744.183ZM536.348 746.668C538.142 746.668 539.64 746.147 540.791 745.068L540.107 744.338C539.175 745.212 537.938 745.668 536.348 745.668V746.668ZM540.792 745.067C542.018 743.913 542.921 741.728 543.575 738.655L542.597 738.447C541.949 741.493 541.094 743.41 540.107 744.339L540.792 745.067ZM543.086 739.051H546.699V738.051H543.086V739.051Z" fill="#CE7975"/>
</g>
<defs>
<clipPath id="clip0_11933_49">
<rect width="1024" height="1024" fill="white"/>
</clipPath>
</defs>
</svg>
